<svg viewBox="0 0 880 940" xmlns="http://www.w3.org/2000/svg" font-family="system-ui,-apple-system,sans-serif">
<rect width="880" height="940" fill="#f8f9fa" rx="14"/>
<rect width="880" height="940" fill="none" stroke="#dee2e6" stroke-width="1" rx="14"/>
<defs>
<marker id="a0" markerWidth="9" markerHeight="6" refX="8" refY="3" orient="auto"><polygon points="0 0,9 3,0 6" fill="#5c35d1"/></marker>
<marker id="a1" markerWidth="9" markerHeight="6" refX="8" refY="3" orient="auto"><polygon points="0 0,9 3,0 6" fill="#1976d2"/></marker>
<marker id="a2" markerWidth="9" markerHeight="6" refX="8" refY="3" orient="auto"><polygon points="0 0,9 3,0 6" fill="#00796b"/></marker>
<marker id="a3" markerWidth="9" markerHeight="6" refX="8" refY="3" orient="auto"><polygon points="0 0,9 3,0 6" fill="#2e7d32"/></marker>
<marker id="a4" markerWidth="9" markerHeight="6" refX="8" refY="3" orient="auto"><polygon points="0 0,9 3,0 6" fill="#f57c00"/></marker>
<marker id="a5" markerWidth="9" markerHeight="6" refX="8" refY="3" orient="auto"><polygon points="0 0,9 3,0 6" fill="#c62828"/></marker>
<marker id="a6" markerWidth="9" markerHeight="6" refX="8" refY="3" orient="auto"><polygon points="0 0,9 3,0 6" fill="#6a1b9a"/></marker>
<marker id="a7" markerWidth="9" markerHeight="6" refX="8" refY="3" orient="auto"><polygon points="0 0,9 3,0 6" fill="#0288d1"/></marker>
<marker id="aCoA" markerWidth="9" markerHeight="6" refX="8" refY="3" orient="auto"><polygon points="0 0,9 3,0 6" fill="#e65100"/></marker>
</defs>
<text x="440" y="40" text-anchor="middle" font-size="21" font-weight="600" fill="#1a1a2e">The Krebs Cycle (TCA Cycle)</text>
<text x="440" y="62" text-anchor="middle" font-size="12" fill="#6c757d">8 reactions in the mitochondrial matrix. 2 turns per glucose molecule.</text>
<line x1="80" y1="74" x2="800" y2="74" stroke="#dee2e6" stroke-width="1"/>
<circle cx="440" cy="435" r="84" fill="white" stroke="#cfd8dc" stroke-width="1.5"/>
<text x="440" y="405" text-anchor="middle" font-size="12" font-weight="600" fill="#37474f">Krebs Cycle</text>
<text x="440" y="425" text-anchor="middle" font-size="12" font-weight="400" fill="#546e7a">per turn:</text>
<text x="440" y="447" text-anchor="middle" font-size="12" font-weight="600" fill="#1b5e20">3 NADH + 1 FADH2</text>
<text x="440" y="465" text-anchor="middle" font-size="12" font-weight="600" fill="#0d47a1">1 GTP + 2 CO2</text>
<text x="440" y="485" text-anchor="middle" font-size="12" font-weight="400" fill="#9e9e9e">(per half-glucose)</text>
<path d="M440.0,183.0 Q513.1,258.6 618.2,256.8" stroke="#5c35d1" stroke-width="2.5" fill="none" marker-end="url(#a0)"/>
<text x="574.7" y="109.8" text-anchor="middle" font-size="10" fill="#5c35d1" font-style="italic">Citrate synthase</text>
<rect x="522.7" y="144.2" width="68" height="18" rx="5" fill="#ede7f6" stroke="#5c35d1" stroke-width="1.2"/>
<text x="556.7" y="158.2" text-anchor="middle" font-size="10" font-weight="600" fill="#5c35d1">+CoA</text>
<path d="M618.2,256.8 Q616.4,361.9 692.0,435.0" stroke="#1976d2" stroke-width="2.5" fill="none" marker-end="url(#a1)"/>
<text x="765.2" y="300.3" text-anchor="middle" font-size="10" fill="#1976d2" font-style="italic">Aconitase</text>
<path d="M692.0,435.0 Q616.4,508.1 618.2,613.2" stroke="#00796b" stroke-width="2.5" fill="none" marker-end="url(#a2)"/>
<text x="765.2" y="562.7" text-anchor="middle" font-size="10" fill="#00796b" font-style="italic">Isocitrate</text>
<text x="765.2" y="576.7" text-anchor="middle" font-size="10" fill="#00796b" font-style="italic">dehydrogenase</text>
<rect x="680.8" y="542.7" width="82" height="18" rx="5" fill="#e0f2f1" stroke="#00796b" stroke-width="1.2"/>
<text x="721.8" y="556.7" text-anchor="middle" font-size="10" font-weight="600" fill="#00796b">-CO2, +NADH</text>
<path d="M618.2,613.2 Q513.1,611.4 440.0,687.0" stroke="#2e7d32" stroke-width="2.5" fill="none" marker-end="url(#a3)"/>
<text x="574.7" y="753.2" text-anchor="middle" font-size="10" fill="#2e7d32" font-style="italic">a-Ketoglutarate</text>
<text x="574.7" y="767.2" text-anchor="middle" font-size="10" fill="#2e7d32" font-style="italic">dehydrogenase</text>
<rect x="515.7" y="707.8" width="82" height="18" rx="5" fill="#e8f5e9" stroke="#2e7d32" stroke-width="1.2"/>
<text x="556.7" y="721.8" text-anchor="middle" font-size="10" font-weight="600" fill="#2e7d32">-CO2, +NADH</text>
<path d="M440.0,687.0 Q366.9,611.4 261.8,613.2" stroke="#f57c00" stroke-width="2.5" fill="none" marker-end="url(#a4)"/>
<text x="305.3" y="753.2" text-anchor="middle" font-size="10" fill="#f57c00" font-style="italic">Succinyl-CoA</text>
<text x="305.3" y="767.2" text-anchor="middle" font-size="10" fill="#f57c00" font-style="italic">synthetase</text>
<rect x="289.3" y="707.8" width="68" height="18" rx="5" fill="#fff3e0" stroke="#f57c00" stroke-width="1.2"/>
<text x="323.3" y="721.8" text-anchor="middle" font-size="10" font-weight="600" fill="#f57c00">+GTP</text>
<path d="M261.8,613.2 Q263.6,508.1 188.0,435.0" stroke="#c62828" stroke-width="2.5" fill="none" marker-end="url(#a5)"/>
<text x="114.8" y="562.7" text-anchor="middle" font-size="10" fill="#c62828" font-style="italic">Succinate</text>
<text x="114.8" y="576.7" text-anchor="middle" font-size="10" fill="#c62828" font-style="italic">dehydrogenase</text>
<rect x="124.2" y="542.7" width="68" height="18" rx="5" fill="#ffebee" stroke="#c62828" stroke-width="1.2"/>
<text x="158.2" y="556.7" text-anchor="middle" font-size="10" font-weight="600" fill="#c62828">+FADH2</text>
<path d="M188.0,435.0 Q263.6,361.9 261.8,256.8" stroke="#6a1b9a" stroke-width="2.5" fill="none" marker-end="url(#a6)"/>
<text x="114.8" y="300.3" text-anchor="middle" font-size="10" fill="#6a1b9a" font-style="italic">Fumarase</text>
<path d="M261.8,256.8 Q366.9,258.6 440.0,183.0" stroke="#0288d1" stroke-width="2.5" fill="none" marker-end="url(#a7)"/>
<text x="305.3" y="102.8" text-anchor="middle" font-size="10" fill="#0288d1" font-style="italic">Malate</text>
<text x="305.3" y="116.8" text-anchor="middle" font-size="10" fill="#0288d1" font-style="italic">dehydrogenase</text>
<rect x="289.3" y="144.2" width="68" height="18" rx="5" fill="#e1f5fe" stroke="#0288d1" stroke-width="1.2"/>
<text x="323.3" y="158.2" text-anchor="middle" font-size="10" font-weight="600" fill="#0288d1">+NADH</text>
<rect x="376.0" y="165.0" width="128" height="36" rx="8" fill="#ede7f6" stroke="#5c35d1" stroke-width="2"/>
<text x="440.0" y="181.0" text-anchor="middle" font-size="11" font-weight="600" fill="#5c35d1">Oxaloacetate</text>
<text x="440.0" y="197.0" text-anchor="middle" font-size="9" fill="#546e7a">OAA</text>
<rect x="554.2" y="238.8" width="128" height="36" rx="8" fill="#e3f2fd" stroke="#1976d2" stroke-width="2"/>
<text x="618.2" y="254.8" text-anchor="middle" font-size="11" font-weight="600" fill="#1976d2">Citrate</text>
<text x="618.2" y="270.8" text-anchor="middle" font-size="9" fill="#546e7a">Citrate</text>
<rect x="628.0" y="417.0" width="128" height="36" rx="8" fill="#e0f2f1" stroke="#00796b" stroke-width="2"/>
<text x="692.0" y="433.0" text-anchor="middle" font-size="11" font-weight="600" fill="#00796b">Isocitrate</text>
<text x="692.0" y="449.0" text-anchor="middle" font-size="9" fill="#546e7a">Iso-citrate</text>
<rect x="554.2" y="595.2" width="128" height="36" rx="8" fill="#e8f5e9" stroke="#2e7d32" stroke-width="2"/>
<text x="618.2" y="611.2" text-anchor="middle" font-size="11" font-weight="600" fill="#2e7d32">a-Ketoglutarate</text>
<text x="618.2" y="627.2" text-anchor="middle" font-size="9" fill="#546e7a">a-KG</text>
<rect x="376.0" y="669.0" width="128" height="36" rx="8" fill="#fff3e0" stroke="#f57c00" stroke-width="2"/>
<text x="440.0" y="685.0" text-anchor="middle" font-size="11" font-weight="600" fill="#f57c00">Succinyl-CoA</text>
<text x="440.0" y="701.0" text-anchor="middle" font-size="9" fill="#546e7a">Suc-CoA</text>
<rect x="197.8" y="595.2" width="128" height="36" rx="8" fill="#ffebee" stroke="#c62828" stroke-width="2"/>
<text x="261.8" y="611.2" text-anchor="middle" font-size="11" font-weight="600" fill="#c62828">Succinate</text>
<text x="261.8" y="627.2" text-anchor="middle" font-size="9" fill="#546e7a">Succinate</text>
<rect x="124.0" y="417.0" width="128" height="36" rx="8" fill="#f3e5f5" stroke="#6a1b9a" stroke-width="2"/>
<text x="188.0" y="433.0" text-anchor="middle" font-size="11" font-weight="600" fill="#6a1b9a">Fumarate</text>
<text x="188.0" y="449.0" text-anchor="middle" font-size="9" fill="#546e7a">Fumarate</text>
<rect x="197.8" y="238.8" width="128" height="36" rx="8" fill="#e1f5fe" stroke="#0288d1" stroke-width="2"/>
<text x="261.8" y="254.8" text-anchor="middle" font-size="11" font-weight="600" fill="#0288d1">Malate</text>
<text x="261.8" y="270.8" text-anchor="middle" font-size="9" fill="#546e7a">Malate</text>
<text x="728.19090885901" y="201.80909114099006" font-size="12" font-weight="700" fill="#e65100" text-anchor="middle">Acetyl-CoA</text>
<text x="728.19090885901" y="218.80909114099006" font-size="10" fill="#ef6c00" text-anchor="middle">(from pyruvate)</text>
<line x1="728.19090885901" y1="228.80909114099006" x2="682.2" y2="252.8" stroke="#e65100" stroke-width="2.2" stroke-dasharray="6,4" marker-end="url(#aCoA)"/>
<rect x="40" y="840" width="800" height="80" rx="10" fill="white" stroke="#2e7d5e" stroke-width="2"/>
<rect x="40" y="840" width="800" height="28" rx="10" fill="#2e7d5e"/>
<rect x="40" y="854" width="800" height="14" rx="0" fill="#2e7d5e"/>
<text x="440" y="859" text-anchor="middle" font-size="13" font-weight="600" fill="white">Per Glucose (2 turns): 6 NADH + 2 FADH2 + 2 GTP + 4 CO2</text>
<text x="440" y="886" text-anchor="middle" font-size="12" fill="#37474f">NADH and FADH2 carry electrons to the electron transport chain,</text>
<text x="440" y="904" text-anchor="middle" font-size="12" fill="#546e7a">where oxidative phosphorylation produces the majority of cellular ATP.</text>
</svg>